<?xml version="1.0" encoding="UTF-8"?>
<!DOCTYPE svg PUBLIC "-//W3C//DTD SVG 1.1//EN" "http://www.w3.org/Graphics/SVG/1.1/DTD/svg11.dtd">
<!-- Creator: CorelDRAW -->
<svg xmlns="http://www.w3.org/2000/svg" xml:space="preserve" width="2048px" height="2048px" style="shape-rendering:geometricPrecision; text-rendering:geometricPrecision; image-rendering:optimizeQuality; fill-rule:evenodd; clip-rule:evenodd"
viewBox="0 0 2048 2048"
 xmlns:xlink="http://www.w3.org/1999/xlink">
 <defs>
  <style type="text/css">
   <![CDATA[
    .fil2 {fill:none}
    .fil1 {fill:#283593}
    .fil0 {fill:#3949AB}
    .fil3 {fill:#039BE5;fill-rule:nonzero}
    .fil4 {fill:#29B6F6;fill-rule:nonzero}
    .fil5 {fill:#81D4FA;fill-rule:nonzero}
   ]]>
  </style>
   <clipPath id="id0">
    <path d="M1024 0c565.541,0 1024,458.459 1024,1024 0,565.541 -458.459,1024 -1024,1024 -565.541,0 -1024,-458.459 -1024,-1024 0,-565.541 458.459,-1024 1024,-1024z"/>
   </clipPath>
 </defs>
 <g id="Layer_x0020_1">
  <metadata id="CorelCorpID_0Corel-Layer"/>
  <path class="fil0" d="M1024 0c565.541,0 1024,458.459 1024,1024 0,565.541 -458.459,1024 -1024,1024 -565.541,0 -1024,-458.459 -1024,-1024 0,-565.541 458.459,-1024 1024,-1024z"/>
  <g style="clip-path:url(#id0)">
   <g id="_308724712">
    <g>
     <polygon id="_3021515281" class="fil1" points="1542.23,673.922 2678.11,1809.8 2680.77,1812.97 2683.36,1816.19 2685.87,1819.48 2688.3,1822.83 2690.65,1826.23 2692.92,1829.69 2695.11,1833.21 2697.21,1836.79 2699.23,1840.41 2701.16,1844.09 2703.01,1847.82 2704.77,1851.6 2706.44,1855.42 2708.01,1859.29 2709.5,1863.2 2710.89,1867.16 2712.19,1871.16 2713.39,1875.2 2714.49,1879.28 2715.5,1883.4 2716.4,1887.55 2717.2,1891.74 2717.9,1895.96 2718.5,1900.21 2718.99,1904.49 2719.38,1908.8 2719.66,1913.14 2719.82,1917.51 2719.88,1921.9 2719.83,1926.31 2719.66,1930.75 1583.78,794.864 1583.95,790.429 1584,786.016 1583.94,781.626 1583.77,777.26 1583.5,772.922 1583.11,768.61 1582.62,764.329 1582.02,760.077 1581.32,755.855 1580.52,751.668 1579.62,747.516 1578.61,743.399 1577.51,739.321 1576.31,735.28 1575.01,731.28 1573.62,727.322 1572.13,723.408 1570.56,719.538 1568.89,715.713 1567.13,711.936 1565.28,708.207 1563.35,704.529 1561.33,700.903 1559.23,697.329 1557.04,693.811 1554.77,690.348 1552.42,686.943 1549.99,683.595 1547.48,680.308 1544.89,677.084 "/>
     <polygon id="_302150904" class="fil1" points="1476.81,856.92 2612.69,1992.8 2608.76,1988.56 2604.73,1984.43 2600.62,1980.41 2596.42,1976.49 2592.13,1972.7 2587.76,1969.01 2583.31,1965.45 2578.78,1961.99 2574.17,1958.66 2569.49,1955.44 2564.74,1952.34 2559.91,1949.36 2555.02,1946.51 2550.06,1943.77 2545.04,1941.16 2539.96,1938.67 2534.82,1936.31 2529.62,1934.07 2524.36,1931.96 2519.05,1929.98 2513.7,1928.13 2508.29,1926.41 2502.84,1924.82 2497.34,1923.36 2491.8,1922.04 2486.22,1920.85 2480.6,1919.8 2474.95,1918.88 2469.26,1918.1 2463.54,1917.46 2457.79,1916.96 2452.02,1916.6 1316.14,780.713 1321.91,781.074 1327.66,781.576 1333.38,782.218 1339.07,782.997 1344.72,783.915 1350.34,784.968 1355.92,786.158 1361.46,787.482 1366.95,788.939 1372.41,790.529 1377.81,792.25 1383.17,794.102 1388.48,796.083 1393.74,798.191 1398.94,800.428 1404.08,802.79 1409.16,805.277 1414.18,807.89 1419.14,810.624 1424.03,813.483 1428.86,816.46 1433.61,819.559 1438.29,822.777 1442.9,826.112 1447.43,829.564 1451.88,833.133 1456.25,836.815 1460.54,840.612 1464.74,844.523 1468.85,848.545 1472.88,852.677 "/>
     <polygon id="_302151816" class="fil1" points="1528.45,911.408 2664.33,2047.29 2663.02,2048.46 2661.7,2049.62 2660.37,2050.76 2659.03,2051.89 2657.67,2053.01 2656.31,2054.12 2654.93,2055.21 2653.54,2056.29 1517.66,920.404 1519.05,919.326 1520.42,918.235 1521.79,917.129 1523.15,916.011 1524.49,914.88 1525.82,913.736 1527.14,912.578 "/>
     <polygon id="_302151840" class="fil1" points="1478.41,858.702 2614.29,1994.58 2612.69,1992.8 1476.81,856.92 "/>
     <polygon id="_302151888" class="fil1" points="1312.12,587.991 2448,1723.87 2449.55,1725.69 2451.07,1727.52 2452.56,1729.38 2454.02,1731.26 2455.45,1733.17 2456.86,1735.09 2458.23,1737.04 2459.58,1739.01 2460.9,1741 2462.18,1743.01 2463.44,1745.05 2464.66,1747.1 2465.86,1749.17 2467.02,1751.26 2468.15,1753.37 2469.25,1755.5 2470.32,1757.65 2471.35,1759.82 2472.35,1762.01 2473.32,1764.21 2474.26,1766.43 1338.37,630.546 1337.44,628.327 1336.47,626.124 1335.47,623.939 1334.44,621.772 1333.37,619.622 1332.27,617.493 1331.14,615.381 1329.98,613.289 1328.78,611.216 1327.56,609.163 1326.3,607.131 1325.02,605.118 1323.7,603.127 1322.35,601.158 1320.98,599.209 1319.57,597.283 1318.14,595.379 1316.68,593.497 1315.19,591.638 1313.67,589.803 "/>
     <polygon id="_302151960" class="fil1" points="1316.14,780.713 2452.02,1916.6 2449.77,1916.49 2447.52,1916.41 2445.26,1916.35 2443.01,1916.32 2440.76,1916.3 2438.51,1916.31 2436.25,1916.34 2434,1916.39 2431.75,1916.46 2429.5,1916.55 2427.25,1916.66 2425,1916.8 2422.76,1916.96 2420.51,1917.14 2418.27,1917.34 2416.03,1917.56 2413.79,1917.81 2411.55,1918.08 2409.32,1918.36 2407.09,1918.67 2404.86,1919.01 2402.64,1919.36 2400.42,1919.73 2398.2,1920.13 2395.99,1920.55 2393.78,1920.99 2391.57,1921.45 2389.38,1921.93 2387.18,1922.44 2384.99,1922.96 2382.8,1923.51 2380.62,1924.08 1244.74,788.2 1246.92,787.631 1249.11,787.081 1251.3,786.556 1253.49,786.05 1255.69,785.567 1257.9,785.105 1260.11,784.666 1262.32,784.248 1264.54,783.851 1266.76,783.477 1268.98,783.123 1271.21,782.792 1273.44,782.481 1275.67,782.193 1277.91,781.927 1280.15,781.681 1282.39,781.459 1284.63,781.257 1286.88,781.078 1289.12,780.919 1291.37,780.782 1293.62,780.668 1295.87,780.575 1298.12,780.504 1300.37,780.454 1302.63,780.426 1304.88,780.419 1307.13,780.434 1309.38,780.472 1311.64,780.53 1313.89,780.611 "/>
     <polygon id="_302152224" class="fil1" points="1197.9,752.81 2333.78,1888.69 2332.07,1886.84 2330.34,1885.01 2328.59,1883.2 2326.81,1881.41 2325.02,1879.64 2323.2,1877.89 2321.36,1876.16 2319.5,1874.46 2317.62,1872.77 2315.71,1871.11 2313.79,1869.47 2311.85,1867.85 1175.97,731.967 1177.91,733.587 1179.83,735.229 1181.74,736.892 1183.62,738.576 1185.48,740.282 1187.32,742.01 1189.14,743.76 1190.93,745.529 1192.71,747.319 1194.46,749.129 1196.19,750.96 "/>
     <polygon id="_302151600" class="fil1" points="1175.97,731.967 2311.85,1867.85 2308.53,1865.18 2305.17,1862.57 2301.76,1860.05 2298.31,1857.59 2294.82,1855.21 2291.28,1852.9 2287.7,1850.66 2284.09,1848.5 2280.43,1846.42 2276.74,1844.41 2273.01,1842.47 2269.25,1840.61 2265.45,1838.83 2261.61,1837.13 2257.75,1835.5 2253.85,1833.95 2249.93,1832.48 2245.97,1831.08 2241.99,1829.77 2237.98,1828.53 2233.94,1827.38 2229.88,1826.3 2225.8,1825.3 2221.69,1824.39 2217.56,1823.55 2213.41,1822.8 2209.24,1822.13 2205.05,1821.54 2200.85,1821.04 2196.62,1820.61 2192.39,1820.28 2188.13,1820.02 1052.25,684.136 1056.5,684.393 1060.74,684.732 1064.96,685.154 1069.17,685.66 1073.36,686.249 1077.53,686.92 1081.68,687.673 1085.81,688.506 1089.92,689.422 1094,690.419 1098.06,691.495 1102.1,692.651 1106.11,693.886 1110.09,695.201 1114.05,696.595 1117.97,698.067 1121.87,699.617 1125.73,701.245 1129.57,702.95 1133.36,704.732 1137.13,706.59 1140.86,708.525 1144.55,710.535 1148.21,712.62 1151.82,714.78 1155.4,717.015 1158.94,719.324 1162.43,721.707 1165.88,724.163 1169.29,726.692 1172.65,729.293 "/>
     <polygon id="_302152704" class="fil1" points="1244.74,788.2 2380.62,1924.08 2379.51,1924.38 2378.4,1924.69 2377.29,1925 2376.18,1925.31 2375.08,1925.64 2373.97,1925.96 2372.87,1926.29 2371.77,1926.63 2370.67,1926.98 2369.57,1927.33 2368.47,1927.68 2367.38,1928.04 2366.29,1928.41 2365.2,1928.78 2364.11,1929.15 2363.02,1929.53 1227.14,793.651 1228.23,793.269 1229.32,792.894 1230.41,792.523 1231.5,792.157 1232.59,791.797 1233.69,791.443 1234.79,791.094 1235.89,790.75 1236.99,790.412 1238.09,790.08 1239.19,789.753 1240.3,789.431 1241.41,789.115 1242.52,788.805 1243.63,788.5 "/>
     <polygon id="_302152608" class="fil1" points="1052.25,684.136 2188.13,1820.02 2183.08,1819.83 2178.03,1819.76 2173,1819.8 2167.97,1819.98 2162.96,1820.26 2157.96,1820.67 2152.97,1821.2 2148.01,1821.84 2143.07,1822.6 2138.15,1823.48 2133.25,1824.47 2128.39,1825.58 2123.55,1826.8 2118.74,1828.13 2113.97,1829.57 2109.24,1831.13 2104.54,1832.8 2099.88,1834.57 2095.26,1836.46 2090.69,1838.45 2086.16,1840.56 2081.69,1842.77 2077.26,1845.09 2072.89,1847.51 2068.57,1850.04 2064.3,1852.67 2060.1,1855.4 2055.95,1858.24 2051.88,1861.18 2047.86,1864.22 2043.91,1867.37 2040.03,1870.61 904.152,734.728 908.031,731.484 911.978,728.342 915.994,725.3 920.074,722.359 924.217,719.52 928.422,716.784 932.684,714.153 937.005,711.625 941.378,709.203 945.806,706.886 950.284,704.676 954.81,702.572 959.382,700.577 963.998,698.691 968.657,696.914 973.354,695.246 978.092,693.69 982.863,692.246 987.669,690.914 992.506,689.693 997.373,688.588 1002.27,687.597 1007.19,686.721 1012.13,685.961 1017.09,685.317 1022.07,684.791 1027.07,684.382 1032.09,684.093 1037.12,683.923 1042.15,683.873 1047.2,683.944 "/>
     <polygon id="_302152560" class="fil1" points="904.152,734.728 2040.03,1870.61 2038.02,1872.36 2036.02,1874.13 2034.05,1875.93 2032.11,1877.75 2030.19,1879.6 2028.29,1881.46 2026.42,1883.35 2024.58,1885.26 2022.76,1887.19 2020.96,1889.14 2019.19,1891.12 2017.45,1893.11 2015.73,1895.13 2014.04,1897.16 2012.37,1899.22 2010.73,1901.29 2009.12,1903.39 2007.53,1905.5 2005.97,1907.64 2004.44,1909.79 2002.94,1911.96 2001.46,1914.15 2000.01,1916.36 1998.59,1918.58 1997.19,1920.82 1995.83,1923.08 1994.49,1925.36 1993.18,1927.66 1991.9,1929.97 1990.65,1932.29 1989.43,1934.63 1988.24,1936.99 852.355,801.11 853.548,798.752 854.77,796.41 856.022,794.083 857.303,791.773 858.611,789.479 859.948,787.202 861.314,784.942 862.707,782.699 864.129,780.474 865.579,778.267 867.056,776.078 868.561,773.906 870.093,771.754 871.652,769.62 873.238,767.506 874.85,765.41 876.49,763.335 878.155,761.279 879.848,759.243 881.565,757.228 883.309,755.233 885.079,753.259 886.874,751.307 888.694,749.376 890.54,747.466 892.411,745.579 894.307,743.714 896.227,741.87 898.172,740.05 900.141,738.252 902.135,736.478 "/>
     <polygon id="_302152968" class="fil1" points="1583.78,794.864 2719.66,1930.75 2719.39,1935.13 2719,1939.48 2718.51,1943.79 2717.92,1948.06 2717.22,1952.29 2716.43,1956.47 2715.53,1960.62 2714.53,1964.71 2713.43,1968.76 2712.24,1972.77 2710.95,1976.73 2709.57,1980.64 2708.09,1984.5 2706.53,1988.31 2704.87,1992.07 2703.13,1995.78 2701.3,1999.43 2699.38,2003.03 2697.38,2006.58 2695.3,2010.07 2693.14,2013.51 2690.89,2016.88 2688.57,2020.2 2686.17,2023.46 2683.69,2026.66 2681.14,2029.8 2678.51,2032.88 2675.81,2035.89 2673.04,2038.84 2670.21,2041.72 2667.3,2044.54 2664.33,2047.29 1528.45,911.408 1531.42,908.657 1534.33,905.839 1537.16,902.955 1539.93,900.005 1542.63,896.994 1545.26,893.917 1547.81,890.779 1550.28,887.58 1552.69,884.32 1555.01,881.001 1557.25,877.625 1559.42,874.19 1561.5,870.699 1563.5,867.152 1565.42,863.551 1567.25,859.895 1568.99,856.186 1570.65,852.427 1572.21,848.616 1573.69,844.756 1575.07,840.845 1576.36,836.887 1577.55,832.882 1578.65,828.83 1579.65,824.734 1580.55,820.592 1581.34,816.407 1582.04,812.18 1582.63,807.911 1583.12,803.601 1583.51,799.251 "/>
     <polygon id="_302153040" class="fil1" points="1179.85,768.042 2315.73,1903.92 2317.67,1906.06 2319.58,1908.23 2321.45,1910.43 2323.29,1912.65 2325.1,1914.9 2326.87,1917.18 2328.61,1919.49 2330.31,1921.83 2331.98,1924.19 2333.61,1926.58 2335.21,1928.99 2336.76,1931.43 2338.29,1933.89 2339.77,1936.38 2341.22,1938.89 2342.63,1941.43 2344,1943.99 2345.33,1946.57 2346.62,1949.17 2347.88,1951.8 2349.09,1954.45 2350.27,1957.12 2351.4,1959.81 1215.52,823.928 1214.38,821.238 1213.21,818.568 1212,815.919 1210.74,813.292 1209.45,810.688 1208.12,808.106 1206.75,805.547 1205.34,803.01 1203.89,800.497 1202.4,798.01 1200.88,795.546 1199.32,793.107 1197.73,790.693 1196.1,788.306 1194.43,785.944 1192.73,783.609 1190.99,781.301 1189.22,779.02 1187.41,776.768 1185.57,774.543 1183.7,772.347 1181.79,770.18 "/>
     <polygon id="_302152512" class="fil1" points="1359.86,1120.53 2495.74,2256.41 2491.92,2252.48 2488,2248.63 2483.99,2244.88 2479.89,2241.23 2475.7,2237.67 2471.43,2234.21 2467.07,2230.85 2462.63,2227.6 2458.1,2224.44 2453.49,2221.4 2448.81,2218.46 2444.05,2215.64 2439.22,2212.93 2434.31,2210.33 2429.33,2207.84 2424.28,2205.48 2419.16,2203.23 2413.98,2201.11 2408.73,2199.11 2403.42,2197.23 2398.05,2195.49 2392.62,2193.87 2387.13,2192.38 2381.58,2191.03 2375.98,2189.81 2370.33,2188.73 2364.62,2187.78 2358.87,2186.98 2353.07,2186.32 2347.22,2185.8 2341.33,2185.43 1205.45,1049.55 1211.34,1049.92 1217.19,1050.44 1222.99,1051.1 1228.74,1051.9 1234.45,1052.84 1240.1,1053.93 1245.7,1055.15 1251.24,1056.5 1256.73,1057.99 1262.17,1059.61 1267.54,1061.35 1272.85,1063.23 1278.1,1065.23 1283.28,1067.35 1288.4,1069.6 1293.45,1071.96 1298.43,1074.44 1303.33,1077.04 1308.17,1079.76 1312.93,1082.58 1317.61,1085.52 1322.22,1088.56 1326.74,1091.71 1331.19,1094.97 1335.55,1098.33 1339.82,1101.79 1344.01,1105.34 1348.11,1109 1352.12,1112.75 1356.04,1116.59 "/>
     <polygon id="_302152656" class="fil1" points="1445.91,1164.37 2581.8,2300.26 2580.67,2301.27 2579.53,2302.28 2578.38,2303.28 2577.23,2304.27 2576.07,2305.25 2574.9,2306.22 2573.73,2307.19 2572.55,2308.15 2571.36,2309.1 2570.16,2310.04 2568.96,2310.98 2567.75,2311.9 2566.53,2312.82 2565.31,2313.73 2564.08,2314.63 2562.84,2315.52 2561.59,2316.4 2560.34,2317.28 2559.08,2318.14 2557.82,2319 2556.55,2319.85 2555.27,2320.69 2553.99,2321.52 2552.7,2322.35 2551.4,2323.16 2550.1,2323.96 2548.79,2324.76 2547.47,2325.55 2546.15,2326.33 2544.82,2327.1 2543.49,2327.86 2542.15,2328.61 1406.27,1192.73 1407.61,1191.98 1408.94,1191.22 1410.27,1190.45 1411.59,1189.67 1412.91,1188.88 1414.22,1188.08 1415.52,1187.28 1416.82,1186.46 1418.11,1185.64 1419.39,1184.81 1420.67,1183.97 1421.94,1183.12 1423.2,1182.26 1424.46,1181.39 1425.71,1180.52 1426.96,1179.64 1428.19,1178.74 1429.43,1177.84 1430.65,1176.94 1431.87,1176.02 1433.08,1175.09 1434.28,1174.16 1435.48,1173.22 1436.66,1172.27 1437.85,1171.31 1439.02,1170.34 1440.19,1169.37 1441.35,1168.38 1442.5,1167.39 1443.65,1166.39 1444.78,1165.39 "/>
     <polygon id="_302152680" class="fil1" points="1205.45,1049.55 2341.33,2185.43 2339.05,2185.33 2336.78,2185.25 2334.51,2185.19 2332.24,2185.15 2329.98,2185.14 2327.73,2185.15 2325.48,2185.18 2323.23,2185.23 2320.99,2185.3 2318.75,2185.4 2316.52,2185.52 2314.3,2185.66 2312.07,2185.82 2309.86,2186 2307.65,2186.2 2305.45,2186.42 2303.25,2186.67 2301.06,2186.93 2298.87,2187.22 2296.7,2187.53 2294.52,2187.85 2292.36,2188.2 2290.2,2188.57 2288.05,2188.96 2285.9,2189.37 2283.76,2189.8 2281.63,2190.25 2279.5,2190.72 2277.39,2191.21 2275.27,2191.72 2273.17,2192.24 2271.08,2192.79 1135.19,1056.91 1137.29,1056.36 1139.39,1055.83 1141.5,1055.32 1143.62,1054.84 1145.75,1054.37 1147.88,1053.92 1150.02,1053.49 1152.16,1053.08 1154.32,1052.69 1156.48,1052.32 1158.64,1051.97 1160.81,1051.64 1162.99,1051.34 1165.18,1051.05 1167.37,1050.79 1169.57,1050.54 1171.77,1050.32 1173.98,1050.11 1176.19,1049.93 1178.41,1049.77 1180.64,1049.63 1182.87,1049.52 1185.11,1049.42 1187.35,1049.35 1189.59,1049.3 1191.85,1049.27 1194.1,1049.26 1196.36,1049.27 1198.63,1049.31 1200.9,1049.37 1203.17,1049.45 "/>
     <polygon id="_302152848" class="fil1" points="1053.08,1005.26 2188.97,2141.14 2186.73,2138.9 2184.47,2136.69 2182.17,2134.52 2179.84,2132.38 2177.47,2130.27 2175.07,2128.2 2172.64,2126.17 1036.76,990.29 1039.19,992.322 1041.59,994.39 1043.96,996.494 1046.29,998.633 1048.59,1000.81 1050.85,1003.02 "/>
     <polygon id="_302152392" class="fil1" points="1036.76,990.29 2172.64,2126.17 2169.53,2123.66 2166.37,2121.21 2163.16,2118.82 2159.89,2116.49 2156.59,2114.22 2153.23,2112.01 2149.83,2109.87 2146.39,2107.79 2142.9,2105.78 2139.36,2103.83 2135.79,2101.96 2132.17,2100.14 2128.51,2098.4 2124.81,2096.73 2121.07,2095.13 2117.29,2093.6 2113.48,2092.15 2109.62,2090.76 2105.73,2089.46 2101.81,2088.22 2097.85,2087.07 2093.86,2085.99 2089.83,2084.99 2085.77,2084.06 2081.68,2083.22 2077.56,2082.46 2073.41,2081.78 2069.23,2081.18 2065.03,2080.67 2060.79,2080.23 2056.53,2079.89 2052.24,2079.63 916.363,943.749 920.65,944.007 924.911,944.352 929.146,944.783 933.353,945.297 937.533,945.896 941.682,946.576 945.803,947.338 949.893,948.18 953.951,949.104 957.976,950.104 961.97,951.184 965.929,952.341 969.854,953.573 973.743,954.882 977.596,956.265 981.411,957.72 985.189,959.25 988.928,960.85 992.628,962.521 996.287,964.262 999.905,966.073 1003.48,967.952 1007.01,969.897 1010.5,971.91 1013.95,973.987 1017.35,976.13 1020.71,978.336 1024.01,980.605 1027.27,982.935 1030.49,985.327 1033.65,987.779 "/>
     <polygon id="_302153616" class="fil1" points="1135.19,1056.91 2271.08,2192.79 2269.82,2193.13 2268.57,2193.48 2267.32,2193.83 2266.07,2194.19 2264.82,2194.55 2263.58,2194.93 2262.34,2195.31 2261.11,2195.69 2259.87,2196.09 2258.65,2196.49 2257.42,2196.89 2256.19,2197.31 2254.97,2197.73 2253.76,2198.15 2252.54,2198.59 2251.33,2199.03 2250.12,2199.48 2248.92,2199.93 2247.72,2200.39 2246.52,2200.85 2245.32,2201.33 2244.13,2201.81 2242.94,2202.29 2241.76,2202.78 2240.58,2203.28 2239.4,2203.79 2238.22,2204.3 2237.05,2204.82 2235.88,2205.34 2234.72,2205.87 2233.56,2206.41 2232.4,2206.95 1096.52,1071.07 1097.67,1070.52 1098.84,1069.99 1100,1069.46 1101.17,1068.93 1102.34,1068.42 1103.52,1067.91 1104.69,1067.4 1105.88,1066.9 1107.06,1066.41 1108.25,1065.92 1109.44,1065.44 1110.64,1064.97 1111.84,1064.5 1113.04,1064.05 1114.24,1063.59 1115.45,1063.15 1116.66,1062.71 1117.88,1062.27 1119.09,1061.84 1120.31,1061.43 1121.54,1061.01 1122.76,1060.6 1123.99,1060.2 1125.23,1059.81 1126.46,1059.42 1127.7,1059.04 1128.94,1058.67 1130.19,1058.31 1131.44,1057.95 1132.69,1057.59 1133.94,1057.25 "/>
     <polygon id="_302153544" class="fil1" points="916.363,943.749 2052.24,2079.63 2047.12,2079.44 2042.03,2079.37 2036.96,2079.42 2031.92,2079.6 2026.91,2079.9 2021.93,2080.32 2016.98,2080.86 2012.06,2081.51 2007.18,2082.29 2002.34,2083.17 1997.53,2084.17 1992.77,2085.28 1988.04,2086.51 1983.36,2087.84 1978.72,2089.27 1974.13,2090.82 1969.59,2092.47 1965.09,2094.22 1960.64,2096.08 1956.25,2098.03 1951.91,2100.09 1947.62,2102.24 1943.39,2104.49 1939.22,2106.84 1935.11,2109.28 1931.06,2111.81 1927.07,2114.43 1923.15,2117.14 1919.29,2119.95 1915.5,2122.83 1911.77,2125.81 1908.12,2128.87 772.238,992.983 775.892,989.925 779.614,986.951 783.407,984.063 787.266,981.262 791.189,978.55 795.178,975.927 799.229,973.394 803.342,970.955 807.512,968.61 811.742,966.36 816.028,964.207 820.368,962.15 824.762,960.194 829.208,958.339 833.704,956.586 838.249,954.936 842.841,953.392 847.479,951.954 852.161,950.623 856.887,949.402 861.653,948.29 866.459,947.291 871.302,946.404 876.183,945.633 881.098,944.977 886.048,944.439 891.029,944.019 896.04,943.719 901.081,943.541 906.15,943.485 911.244,943.554 "/>
     <polygon id="_302153760" class="fil1" points="772.238,992.983 1908.12,2128.87 1905.15,2131.46 1902.23,2134.11 1899.37,2136.81 1896.55,2139.57 1893.79,2142.38 1891.08,2145.24 1888.42,2148.16 1885.82,2151.13 1883.28,2154.15 1880.79,2157.22 1878.36,2160.33 1875.99,2163.5 1873.67,2166.71 1871.42,2169.97 1869.23,2173.28 1867.1,2176.63 1865.04,2180.02 1863.03,2183.46 1861.1,2186.94 1859.22,2190.47 1857.42,2194.03 1855.68,2197.64 1854.01,2201.28 1852.41,2204.96 1850.88,2208.68 1849.41,2212.44 1848.02,2216.24 1846.71,2220.07 1845.46,2223.93 1844.29,2227.83 1843.2,2231.77 1842.18,2235.73 706.296,1099.85 707.316,1095.88 708.412,1091.95 709.581,1088.05 710.826,1084.18 712.143,1080.35 713.533,1076.56 714.995,1072.8 716.527,1069.08 718.129,1065.4 719.799,1061.75 721.537,1058.15 723.343,1054.58 725.215,1051.06 727.153,1047.58 729.155,1044.14 731.221,1040.75 733.349,1037.4 735.54,1034.09 737.793,1030.83 740.104,1027.62 742.476,1024.45 744.906,1021.33 747.394,1018.27 749.938,1015.25 752.539,1012.28 755.195,1009.36 757.905,1006.5 760.668,1003.69 763.484,1000.93 766.352,998.224 769.27,995.576 "/>
     <polygon id="_302153256" class="fil1" points="706.296,1099.85 1842.18,2235.73 1841.51,2235.57 1840.85,2235.41 1840.18,2235.25 1839.51,2235.09 1838.85,2234.94 1838.18,2234.78 1837.51,2234.63 1836.84,2234.49 700.956,1098.6 701.626,1098.75 702.296,1098.9 702.964,1099.05 703.632,1099.21 704.299,1099.36 704.965,1099.52 705.631,1099.68 "/>
     <polygon id="_302153424" class="fil1" points="700.956,1098.6 1836.84,2234.49 1834.82,2234.06 1832.79,2233.65 1830.74,2233.26 1828.68,2232.89 1826.61,2232.54 1824.53,2232.21 1822.44,2231.9 1820.33,2231.61 1818.21,2231.34 1816.08,2231.09 1813.94,2230.86 1811.78,2230.66 1809.61,2230.47 1807.44,2230.31 1805.25,2230.17 1803.05,2230.04 667.164,1094.16 669.365,1094.28 671.555,1094.43 673.733,1094.59 675.901,1094.78 678.055,1094.98 680.199,1095.21 682.329,1095.46 684.448,1095.73 686.555,1096.02 688.649,1096.32 690.733,1096.65 692.802,1097.01 694.86,1097.37 696.905,1097.76 698.937,1098.17 "/>
     <polygon id="_302153448" class="fil1" points="667.164,1094.16 1803.05,2230.04 1801.11,2229.96 1799.19,2229.89 1797.26,2229.83 1795.34,2229.8 1793.42,2229.78 1791.51,2229.79 1789.59,2229.81 1787.69,2229.84 1785.79,2229.9 1783.89,2229.97 1781.99,2230.06 1780.1,2230.16 1778.21,2230.29 1776.33,2230.43 1774.45,2230.58 1772.58,2230.76 636.7,1094.87 638.573,1094.7 640.451,1094.54 642.334,1094.4 644.22,1094.28 646.111,1094.17 648.005,1094.09 649.904,1094.01 651.807,1093.96 653.713,1093.92 655.625,1093.9 657.539,1093.9 659.457,1093.92 661.379,1093.95 663.304,1094 665.232,1094.07 "/>
     <polygon id="_302153208" class="fil1" points="1512.99,1023.11 2648.87,2158.99 2648.53,2164.31 2648.07,2169.58 2647.48,2174.8 2646.76,2179.98 2645.91,2185.1 2644.94,2190.17 2643.85,2195.19 2642.64,2200.16 2641.31,2205.07 2639.87,2209.93 2638.31,2214.72 2636.63,2219.46 2634.84,2224.14 2632.95,2228.76 2630.94,2233.32 2628.83,2237.82 2626.61,2242.25 2624.29,2246.61 2621.86,2250.91 2619.34,2255.14 2616.71,2259.31 2613.99,2263.4 2611.17,2267.42 2608.26,2271.37 2605.26,2275.25 2602.17,2279.05 2598.98,2282.78 2595.72,2286.44 2592.36,2290.01 2588.92,2293.5 2585.4,2296.92 2581.8,2300.26 1445.91,1164.37 1449.52,1161.04 1453.04,1157.62 1456.48,1154.13 1459.83,1150.55 1463.1,1146.9 1466.29,1143.17 1469.38,1139.37 1472.38,1135.49 1475.29,1131.54 1478.11,1127.52 1480.83,1123.42 1483.46,1119.26 1485.98,1115.03 1488.41,1110.73 1490.73,1106.36 1492.95,1101.93 1495.06,1097.44 1497.07,1092.88 1498.96,1088.26 1500.75,1083.58 1502.42,1078.84 1503.99,1074.04 1505.43,1069.19 1506.76,1064.28 1507.97,1059.31 1509.06,1054.29 1510.03,1049.22 1510.88,1044.1 1511.59,1038.92 1512.19,1033.7 1512.65,1028.42 "/>
     <polygon id="_302153592" class="fil1" points="1459.31,872.751 2595.19,2008.63 2598.5,2012.39 2601.73,2016.22 2604.86,2020.13 2607.9,2024.11 2610.85,2028.17 2613.7,2032.3 2616.45,2036.5 2619.1,2040.76 2621.65,2045.09 2624.1,2049.49 2626.44,2053.95 2628.68,2058.47 2630.81,2063.04 2632.84,2067.68 2634.75,2072.37 2636.55,2077.12 2638.24,2081.92 2639.81,2086.76 2641.26,2091.66 2642.6,2096.61 2643.82,2101.59 2644.91,2106.63 2645.89,2111.7 2646.74,2116.82 2647.46,2121.97 2648.05,2127.16 2648.52,2132.39 2648.86,2137.65 2649.06,2142.94 2649.13,2148.26 2649.07,2153.61 2648.87,2158.99 1512.99,1023.11 1513.19,1017.73 1513.25,1012.38 1513.18,1007.06 1512.98,1001.77 1512.64,996.509 1512.17,991.282 1511.58,986.091 1510.86,980.937 1510.01,975.822 1509.03,970.746 1507.94,965.713 1506.72,960.724 1505.38,955.778 1503.93,950.881 1502.35,946.033 1500.67,941.235 1498.87,936.49 1496.96,931.798 1494.93,927.163 1492.8,922.585 1490.56,918.066 1488.22,913.607 1485.77,909.211 1483.22,904.88 1480.57,900.615 1477.82,896.417 1474.97,892.289 1472.02,888.232 1468.98,884.248 1465.85,880.339 1462.62,876.506 "/>
     <polygon id="_302153112" class="fil1" points="1038.22,1031.75 2174.1,2167.63 2176.23,2169.78 2178.34,2171.96 2180.41,2174.17 2182.44,2176.41 2184.44,2178.68 2186.41,2180.99 2188.34,2183.32 2190.23,2185.68 2192.09,2188.08 2193.92,2190.5 2195.7,2192.95 2197.45,2195.42 2199.16,2197.93 2200.83,2200.46 2202.47,2203.02 2204.07,2205.6 2205.62,2208.21 2207.14,2210.85 2208.62,2213.51 2210.06,2216.19 2211.46,2218.9 2212.81,2221.63 2214.13,2224.39 2215.4,2227.17 2216.63,2229.97 2217.82,2232.79 1081.94,1096.9 1080.75,1094.08 1079.52,1091.28 1078.24,1088.5 1076.93,1085.75 1075.57,1083.02 1074.18,1080.31 1072.74,1077.62 1071.26,1074.96 1069.74,1072.33 1068.19,1069.72 1066.59,1067.14 1064.95,1064.58 1063.28,1062.05 1061.57,1059.54 1059.82,1057.06 1058.03,1054.62 1056.21,1052.19 1054.35,1049.8 1052.46,1047.44 1050.53,1045.11 1048.56,1042.8 1046.56,1040.53 1044.53,1038.29 1042.46,1036.08 1040.35,1033.9 "/>
     <polygon id="_302153160" class="fil1" points="1323.6,1453.99 2459.48,2589.87 2455.55,2593.34 2451.54,2596.72 2447.45,2600.01 2443.27,2603.2 2439.02,2606.3 2434.69,2609.3 2430.29,2612.2 2425.81,2615.01 2421.26,2617.71 2416.65,2620.32 2411.96,2622.82 2407.21,2625.21 2402.4,2627.51 2397.53,2629.69 2392.59,2631.77 2387.6,2633.74 2382.55,2635.6 2377.45,2637.35 2372.3,2638.98 2367.09,2640.51 2361.84,2641.91 2356.54,2643.2 2351.19,2644.37 2345.8,2645.43 2340.38,2646.36 2334.91,2647.17 2329.4,2647.86 2323.86,2648.42 2318.28,2648.86 2312.67,2649.18 2307.03,2649.36 2301.37,2649.42 1165.48,1513.53 1171.15,1513.48 1176.79,1513.29 1182.4,1512.98 1187.97,1512.54 1193.52,1511.98 1199.02,1511.29 1204.49,1510.48 1209.92,1509.54 1215.31,1508.49 1220.66,1507.32 1225.96,1506.03 1231.21,1504.62 1236.42,1503.1 1241.57,1501.47 1246.67,1499.72 1251.72,1497.86 1256.71,1495.89 1261.65,1493.81 1266.52,1491.62 1271.33,1489.33 1276.08,1486.93 1280.76,1484.43 1285.38,1481.83 1289.93,1479.13 1294.41,1476.32 1298.81,1473.42 1303.14,1470.42 1307.39,1467.32 1311.57,1464.13 1315.66,1460.84 1319.67,1457.46 "/>
     <polygon id="_302153976" class="fil1" points="1165.48,1513.53 2301.37,2649.42 1788.17,2648.54 652.29,1512.66 "/>
     <polygon id="_302154216" class="fil1" points="652.29,1512.66 1788.17,2648.54 1786.94,2648.53 1785.75,2648.52 1784.59,2648.51 1783.47,2648.48 1782.39,2648.46 1781.34,2648.42 1780.33,2648.38 1779.36,2648.34 643.477,1512.46 644.45,1512.5 645.459,1512.54 646.505,1512.57 647.588,1512.6 648.708,1512.62 649.865,1512.64 651.06,1512.65 "/>
     <polygon id="_302154048" class="fil1" points="643.477,1512.46 1779.36,2648.34 1774.57,2648.03 1769.82,2647.61 1765.11,2647.06 1760.43,2646.39 1755.8,2645.61 1751.21,2644.7 1746.67,2643.69 1742.17,2642.56 1737.71,2641.31 1733.31,2639.96 1728.95,2638.5 1724.64,2636.94 1720.38,2635.26 1716.18,2633.49 1712.03,2631.62 1707.93,2629.64 1703.89,2627.57 1699.91,2625.4 1695.98,2623.13 1692.12,2620.77 1688.31,2618.33 1684.57,2615.79 1680.89,2613.16 1677.28,2610.45 1673.73,2607.65 1670.25,2604.77 534.369,1468.89 537.85,1471.77 541.398,1474.57 545.012,1477.28 548.69,1479.91 552.433,1482.44 556.236,1484.89 560.102,1487.25 564.026,1489.51 568.009,1491.68 572.05,1493.76 576.146,1495.73 580.297,1497.61 584.502,1499.38 588.759,1501.05 593.067,1502.62 597.426,1504.08 601.832,1505.43 606.286,1506.67 610.786,1507.8 615.331,1508.82 619.92,1509.72 624.551,1510.51 629.224,1511.18 633.937,1511.73 638.687,1512.15 "/>
     <polygon id="_302154336" class="fil1" points="1393.95,1305.82 2529.83,2441.7 2529.48,2447.28 2528.99,2452.81 2528.37,2458.29 2527.62,2463.72 2526.73,2469.09 2525.72,2474.41 2524.57,2479.68 2523.3,2484.89 2521.91,2490.04 2520.39,2495.13 2518.75,2500.16 2517,2505.13 2515.12,2510.04 2513.13,2514.89 2511.03,2519.67 2508.81,2524.38 2506.48,2529.03 2504.05,2533.61 2501.5,2538.12 2498.86,2542.56 2496.1,2546.92 2493.25,2551.22 2490.29,2555.44 2487.24,2559.58 2484.09,2563.65 2480.85,2567.64 2477.51,2571.55 2474.08,2575.38 2470.56,2579.13 2466.95,2582.79 2463.26,2586.38 2459.48,2589.87 1323.6,1453.99 1327.38,1450.5 1331.07,1446.91 1334.68,1443.25 1338.2,1439.5 1341.63,1435.67 1344.97,1431.76 1348.21,1427.77 1351.36,1423.7 1354.41,1419.55 1357.37,1415.33 1360.22,1411.04 1362.97,1406.67 1365.62,1402.24 1368.17,1397.73 1370.6,1393.15 1372.93,1388.5 1375.15,1383.79 1377.25,1379.01 1379.24,1374.16 1381.12,1369.25 1382.87,1364.28 1384.51,1359.25 1386.03,1354.16 1387.42,1349.01 1388.69,1343.8 1389.83,1338.53 1390.85,1333.21 1391.74,1327.84 1392.49,1322.41 1393.11,1316.93 1393.6,1311.4 "/>
     <polygon id="_302154552" class="fil1" points="1334.08,1144.26 2469.96,2280.14 2473.53,2284 1337.65,1148.12 "/>
     <polygon id="_302154360" class="fil1" points="1337.65,1148.12 2473.53,2284 2477,2287.94 2480.39,2291.96 2483.67,2296.06 2486.86,2300.23 2489.95,2304.49 2492.94,2308.82 2495.83,2313.22 2498.61,2317.7 2501.28,2322.24 2503.85,2326.85 2506.31,2331.53 2508.66,2336.27 2510.89,2341.07 2513.02,2345.93 2515.02,2350.85 2516.91,2355.83 2518.68,2360.86 2520.33,2365.95 2521.85,2371.08 2523.26,2376.27 2524.53,2381.5 2525.68,2386.78 2526.7,2392.11 2527.6,2397.47 2528.35,2402.88 2528.98,2408.32 2529.47,2413.81 2529.82,2419.32 2530.04,2424.87 2530.11,2430.45 2530.04,2436.06 2529.83,2441.7 1393.95,1305.82 1394.16,1300.18 1394.23,1294.57 1394.15,1288.99 1393.94,1283.44 1393.59,1277.92 1393.1,1272.44 1392.47,1267 1391.71,1261.59 1390.82,1256.22 1389.8,1250.9 1388.65,1245.62 1387.38,1240.39 1385.97,1235.2 1384.45,1230.06 1382.8,1224.98 1381.03,1219.95 1379.14,1214.97 1377.13,1210.05 1375.01,1205.19 1372.78,1200.38 1370.43,1195.64 1367.97,1190.97 1365.4,1186.36 1362.73,1181.81 1359.95,1177.34 1357.06,1172.94 1354.07,1168.61 1350.98,1164.35 1347.79,1160.17 1344.51,1156.07 1341.12,1152.05 "/>
    </g>
    <path id="_308725000" class="fil1" d="M1420.41 614.34c47.491,2.38347 89.5241,23.7969 119.088,56.4839 29.5666,32.6929 46.6642,76.6229 44.2831,124.039 -2.35866,47.0115 -23.2807,87.5575 -55.3311,116.544 -3.47008,3.13819 -7.07127,6.13819 -10.7917,8.99646 -9.99095,-23.0587 -23.7248,-44.5512 -40.8473,-63.4843 -41.452,-45.8351 -98.941,-73.1091 -160.673,-76.2071 -24.0036,-1.20473 -48.1701,1.29331 -71.3953,7.48701 -5.93741,1.58268 -11.811,3.40158 -17.602,5.45079 -12.9532,-23.5571 -30.3307,-44.5311 -51.1737,-61.6831 -35.1272,-28.9051 -78.2835,-45.5516 -123.715,-47.8311 -53.9185,-2.70591 -107.107,15.4689 -148.1,50.5914 -21.6473,18.5469 -39.2256,41.1461 -51.7973,66.3827 0.0200788,-2.21929 0.0755906,-4.24961 0.167717,-6.08386 2.14488,-42.7571 21.424,-80.602 50.8536,-107.218 29.4355,-26.6185 68.9847,-42.013 111.667,-39.8717 8.86536,0.445276 17.3634,1.58032 25.4492,3.34488 1.34528,0.294095 2.68583,0.607087 4.02048,0.937796 7.88268,-31.9831 25.6158,-59.8784 49.6583,-80.4768 29.0587,-24.8988 67.3241,-39.1465 108.535,-37.076 34.5378,1.73268 65.8678,14.641 90.6674,35.0481 19.6559,16.1752 35.2087,37.063 45,60.8315 9.28583,-4.38662 19.0252,-7.9689 29.1272,-10.6618 16.8012,-4.47992 34.5874,-6.463 52.9075,-5.5441zm92.5761 408.766c-2.86063,56.9835 -28.2201,106.132 -67.0701,141.267 -12.0165,10.8673 -25.3229,20.3799 -39.6461,28.3583 -10.1445,-25.2036 -24.6685,-48.2611 -42.6792,-68.1768 -39.2575,-43.4067 -95.0753,-71.8406 -158.139,-75.0048 -24.3272,-1.22126 -47.9445,1.41142 -70.2556,7.35945 -13.4138,3.57756 -26.3481,8.33386 -38.6776,14.1591 -13.0039,-31.5614 -33.6544,-59.2985 -59.7567,-80.778 -32.9315,-27.0981 -74.5347,-44.2406 -120.398,-46.5414 -54.7229,-2.74843 -105.537,16.1717 -144.124,49.2343 -31.9252,27.352 -55.4741,64.3949 -65.9422,106.865 -1.77284,-0.43937 -3.55276,-0.853938 -5.33977,-1.2437 -10.7362,-2.34331 -22.0217,-3.85158 -33.7925,-4.44213 -10.3122,-0.517323 -20.4839,-0.259843 -30.4642,0.712205 -6.7252,-19.6961 -10.3536,-40.7339 -10.3169,-62.3469 0.00472441,-3.42166 0.0767717,-6.50079 0.212599,-9.22442 2.60079,-51.8292 25.9689,-97.7009 61.6418,-129.964 35.6799,-32.2666 83.6197,-50.9268 135.357,-48.3296 10.7457,0.538583 21.0473,1.91575 30.8481,4.05355 1.6311,0.356693 3.25512,0.734646 4.87323,1.13622 9.55631,-38.7674 31.0512,-72.5812 60.1926,-97.5497 35.224,-30.1796 81.6071,-47.4496 131.561,-44.941 41.8642,2.1 79.8402,17.7484 109.902,42.4831 23.8264,19.6075 42.6768,44.9268 54.5469,73.7363 11.2559,-5.31615 23.0622,-9.65906 35.3067,-12.9236 20.3646,-5.43071 41.9233,-7.83308 64.1304,-6.7193 57.5658,2.88898 108.517,28.8437 144.352,68.4662 35.8394,39.6284 56.5642,92.8772 53.6788,150.354zm-119.036 282.715c-3,59.7685 -29.6008,111.319 -70.3489,148.172 -41.4485,37.487 -97.5237,59.6434 -158.115,59.5406l-513.194 -0.876379c-3.33189,-0.00590552 -6.26812,-0.0732284 -8.81339,-0.200788 -51.2776,-2.57362 -96.3568,-26.4567 -128.516,-62.4969 -31.8414,-35.6811 -51.0473,-83.4556 -50.9611,-134.257 0.00590552,-3.58819 0.080315,-6.81851 0.223229,-9.6756 2.72953,-54.3626 27.2386,-102.476 64.6571,-136.317 37.4233,-33.8445 87.7064,-53.4166 141.973,-50.693 11.2713,0.564567 22.076,2.00906 32.3563,4.25315 1.71024,0.373229 3.41339,0.770079 5.11181,1.19055 10.0228,-40.6618 32.5689,-76.1292 63.1359,-102.318 36.9449,-31.6559 85.5969,-49.7693 137.992,-47.139 43.9111,2.20394 83.7449,18.6154 115.274,44.5607 24.9921,20.5666 44.7638,47.1237 57.2138,77.341 11.8051,-5.57599 24.189,-10.1315 37.0311,-13.5567 21.3626,-5.69528 43.9748,-8.21575 67.2662,-7.04646 60.3804,3.02953 113.824,30.254 151.41,71.8134 37.591,41.5642 59.3292,97.4174 56.3032,157.706z"/>
   </g>
  </g>
  <path class="fil2" d="M1024 0c565.541,0 1024,458.459 1024,1024 0,565.541 -458.459,1024 -1024,1024 -565.541,0 -1024,-458.459 -1024,-1024 0,-565.541 458.459,-1024 1024,-1024z"/>
  <path class="fil3" d="M1420.41 614.34c47.491,2.38347 89.5241,23.7969 119.088,56.4839 29.5666,32.6929 46.6642,76.6229 44.2831,124.039 -2.35866,47.0115 -23.2807,87.5575 -55.3311,116.544 -3.47008,3.13819 -7.07127,6.13819 -10.7917,8.99646 -9.99095,-23.0587 -23.7248,-44.5512 -40.8473,-63.4843 -41.452,-45.8351 -98.941,-73.1091 -160.673,-76.2071 -24.0036,-1.20473 -48.1701,1.29331 -71.3953,7.48701 -5.93741,1.58268 -11.811,3.40158 -17.602,5.45079 -12.9532,-23.5571 -30.3307,-44.5311 -51.1737,-61.6831 -35.1272,-28.9051 -78.2835,-45.5516 -123.715,-47.8311 -53.9185,-2.70591 -107.107,15.4689 -148.1,50.5914 -21.6473,18.5469 -39.2256,41.1461 -51.7973,66.3827 0.0200788,-2.21929 0.0755906,-4.24961 0.167717,-6.08386 2.14488,-42.7571 21.424,-80.602 50.8536,-107.218 29.4355,-26.6185 68.9847,-42.013 111.667,-39.8717 8.86536,0.445276 17.3634,1.58032 25.4492,3.34488 1.34528,0.294095 2.68583,0.607087 4.02048,0.937796 7.88268,-31.9831 25.6158,-59.8784 49.6583,-80.4768 29.0587,-24.8988 67.3241,-39.1465 108.535,-37.076 34.5378,1.73268 65.8678,14.641 90.6674,35.0481 19.6559,16.1752 35.2087,37.063 45,60.8315 9.28583,-4.38662 19.0252,-7.9689 29.1272,-10.6618 16.8012,-4.47992 34.5874,-6.463 52.9075,-5.5441z"/>
  <path class="fil4" d="M1314.95 804.285c57.5658,2.88898 108.517,28.8437 144.352,68.4662 35.8394,39.6284 56.5642,92.8772 53.6788,150.354 -2.86063,56.9835 -28.2201,106.132 -67.0701,141.267 -12.0165,10.8673 -25.3229,20.3799 -39.6461,28.3583 -10.1445,-25.2036 -24.6685,-48.2611 -42.6792,-68.1768 -39.2575,-43.4067 -95.0753,-71.8406 -158.139,-75.0048 -24.3272,-1.22126 -47.9445,1.41142 -70.2556,7.35945 -13.4138,3.57756 -26.3481,8.33386 -38.6776,14.1591 -13.0039,-31.5614 -33.6544,-59.2985 -59.7567,-80.778 -32.9315,-27.0981 -74.5347,-44.2406 -120.398,-46.5414 -54.7229,-2.74843 -105.537,16.1717 -144.124,49.2343 -31.9252,27.352 -55.4741,64.3949 -65.9422,106.865 -1.77284,-0.43937 -3.55276,-0.853938 -5.33977,-1.2437 -10.7362,-2.34331 -22.0217,-3.85158 -33.7925,-4.44213 -10.3122,-0.517323 -20.4839,-0.259843 -30.4642,0.712205 -6.7252,-19.6961 -10.3536,-40.7339 -10.3169,-62.3469 0.00472441,-3.42166 0.0767717,-6.50079 0.212599,-9.22442 2.60079,-51.8292 25.9689,-97.7009 61.6418,-129.964 35.6799,-32.2666 83.6197,-50.9268 135.357,-48.3296 10.7457,0.538583 21.0473,1.91575 30.8481,4.05355 1.6311,0.356693 3.25512,0.734646 4.87323,1.13622 9.55631,-38.7674 31.0512,-72.5812 60.1926,-97.5497 35.224,-30.1796 81.6071,-47.4496 131.561,-44.941 41.8642,2.1 79.8402,17.7484 109.902,42.4831 23.8264,19.6075 42.6768,44.9268 54.5469,73.7363 11.2559,-5.31615 23.0622,-9.65906 35.3067,-12.9236 20.3646,-5.43071 41.9233,-7.83308 64.1304,-6.7193z"/>
  <path class="fil5" d="M1186.24 1076.3c60.3804,3.02953 113.824,30.254 151.41,71.8134 37.591,41.5642 59.3292,97.4174 56.3032,157.704 -3,59.7697 -29.6008,111.32 -70.3489,148.173 -41.4485,37.4859 -97.5225,59.6434 -158.115,59.5406l-513.194 -0.876379c-3.33189,-0.00590552 -6.26812,-0.0732284 -8.81221,-0.200788 -51.2788,-2.57481 -96.3579,-26.4567 -128.517,-62.4969 -31.8414,-35.6811 -51.0473,-83.4544 -50.9611,-134.257 0.00590552,-3.58819 0.0814961,-6.81851 0.22441,-9.6756 2.72835,-54.3615 27.2374,-102.476 64.656,-136.317 37.4233,-33.8445 87.7064,-53.4166 141.973,-50.693 11.2713,0.564567 22.076,2.00906 32.3563,4.25315 1.71024,0.373229 3.41339,0.770079 5.11181,1.19055 10.0228,-40.663 32.5689,-76.1292 63.1359,-102.318 36.9449,-31.6559 85.5969,-49.7693 137.992,-47.1402 43.9111,2.20394 83.7449,18.6165 115.274,44.5618 24.9921,20.5666 44.7638,47.1225 57.2138,77.341 11.8051,-5.57717 24.189,-10.1315 37.0323,-13.5567 21.3614,-5.69528 43.9737,-8.21575 67.265,-7.04646z"/>
 </g>
</svg>
