<svg xmlns="http://www.w3.org/2000/svg" viewBox="0 0 512 512">
  <defs>
    <style>
      .cls-1 {
        fill: #f6edff;
      }

      .cls-2 {
        fill: #e6cdff;
      }

      .cls-3 {
        fill: #ff4957;
      }

      .cls-4 {
        fill: #dd2637;
      }

      .cls-5 {
        fill: #559aff;
      }

      .cls-6 {
        fill: #19e77c;
      }

      .cls-7 {
        fill: #d7e816;
      }

      .cls-8 {
        fill: #00cb6e;
      }

      .cls-9 {
        fill: #90cf00;
      }

      .cls-10 {
        fill: #eaf385;
      }

      .cls-11 {
        fill: #bcd7ff;
      }
    </style>
  </defs>
  <title>E Commerce_512px</title>
  <g id="Umbrella_with_Rain" data-name="Umbrella with Rain">
    <g>
      <g>
        <path class="cls-1" d="M234.66667,234.66667v192A21.33331,21.33331,0,0,1,213.33335,448h0A21.33331,21.33331,0,0,1,192,426.66669V405.33331A21.33331,21.33331,0,0,0,170.66669,384h0a21.33331,21.33331,0,0,0-21.33332,21.33331v21.33342a63.99994,63.99994,0,0,0,63.99994,63.99994h.00013a63.99993,63.99993,0,0,0,63.99993-63.99994V234.66667Z"/>
        <rect class="cls-2" x="234.66667" y="192" width="42.66667" height="128" rx="21.33331" ry="21.33331"/>
        <path class="cls-3" d="M21.33333,298.66667C21.33333,192.628,128,85.33333,256,85.33333S490.66667,192.628,490.66667,298.66667H469.33342s-21.33332-21.33334-64-21.33334-63.99995,21.33334-63.99995,21.33334h-21.3335S298.66667,277.33333,256,277.33333s-64,21.33334-64,21.33334H170.66675s-21.33352-21.33334-64.00013-21.33334-64,21.33334-64,21.33334Z"/>
        <path class="cls-4" d="M318.45052,94.3724a10.66826,10.66826,0,0,0-2.9987,20.90429c77.7474,22.81739,140.23633,88.69011,151.96094,160.19076a10.66662,10.66662,0,0,0,21.05208-3.45215l-.01823-.10905-.0013-.00911c-.05013-.30469-.10026-.60417-.15234-.90853v-.00228c-4.916-28.88347-17.27669-57.14844-35.332-82.56836l-.002-.00261q-3.4248-4.82274-7.11914-9.5026l-.00065-.0013q-3.38574-4.28955-6.98828-8.44824l-.00065-.00033A249.67859,249.67859,0,0,0,321.459,94.807a10.65648,10.65648,0,0,0-3.00846-.43457Z"/>
        <path class="cls-5" d="M21.33333,298.66667H42.66667s21.33333-21.33334,64-21.33334,64,21.33334,64,21.33334H192s21.33333-21.33334,64-21.33334v-192C128,85.33333,21.33333,192.6276,21.33333,298.66667Z"/>
        <path class="cls-6" d="M256,341.33333a21.33331,21.33331,0,0,0-21.33331,21.33332v64a21.33334,21.33334,0,0,1-42.66667,0V405.33333a21.33334,21.33334,0,0,0-42.66667,0l0,17.7123c-.00008,34.65549,25.95041,65.71855,60.55849,67.5306a64.00306,64.00306,0,0,0,67.44154-63.90956v-64A21.33331,21.33331,0,0,0,256,341.33333Z"/>
        <path class="cls-3" d="M234.66667,128V42.66665A21.33331,21.33331,0,0,1,256,21.33333h0a21.33331,21.33331,0,0,1,21.33331,21.33332V128Z"/>
        <path class="cls-4" d="M256,64v64h21.33333V42.66667A21.33272,21.33272,0,0,0,256,64Z"/>
        <path class="cls-7" d="M278.1237,86.48047c-7.29688-.707-14.66537-1.14714-22.1237-1.14714s-14.82682.44011-22.1237,1.14714a319.96644,319.96644,0,0,0-63.20963,190.85286v21.33334H192s21.33333-21.33334,64-21.33334,64,21.33334,64,21.33334h21.33333V277.33333A319.96644,319.96644,0,0,0,278.1237,86.48047Z"/>
      </g>
      <g>
        <rect class="cls-5" x="21.33333" y="21.33333" width="42.66667" height="128" rx="21.33331" ry="21.33331"/>
        <rect class="cls-5" x="128" y="21.33333" width="42.66667" height="63.99998" rx="21.33331" ry="21.33331"/>
        <rect class="cls-5" x="341.33333" y="21.33333" width="42.66667" height="63.99998" rx="21.33331" ry="21.33331"/>
        <rect class="cls-5" x="448" y="21.33333" width="42.66667" height="106.66665" rx="21.33331" ry="21.33331"/>
      </g>
      <path class="cls-8" d="M266.66667,362.66667A10.66636,10.66636,0,0,0,256,373.33333v53.33334a42.6671,42.6671,0,0,1-42.66667,42.66666,10.66667,10.66667,0,0,0,0,21.33334,63.99983,63.99983,0,0,0,64-64V373.33333A10.66636,10.66636,0,0,0,266.66667,362.66667Z"/>
      <rect class="cls-8" x="170.66667" y="405.33333" width="21.33333" height="42.66667" rx="10.66666" ry="10.66666"/>
      <rect class="cls-9" x="234.66667" y="85.33333" width="42.66667" height="21.33333" rx="10.66666" ry="10.66666"/>
      <circle class="cls-10" cx="256" cy="192" r="42.66667"/>
      <ellipse class="cls-11" cx="138.56083" cy="160.10584" rx="38.41641" ry="21.33333" transform="translate(-72.6284 144.87121) rotate(-45)"/>
    </g>
  </g>
</svg>
